<svg width="38" height="38" viewBox="0 0 38 38" fill="none" xmlns="http://www.w3.org/2000/svg">
<g clip-path="url(#clip0_2191_4)">
<path d="M27.9653 11.3037L25.8729 37.2784H21.5813L21.843 28.6394C23.26 27.712 24.1951 26.1112 24.1951 24.2911C24.1951 22.5835 23.3716 21.0692 22.0998 20.1226L22.1008 20.1216L22.3673 11.3037H27.9653Z" fill="#F2F2F2"/>
<path d="M16.1575 28.6404L16.4182 37.2784H12.1256L10.0342 11.3037H15.6332L15.8996 20.1207L15.9006 20.1216C14.6288 21.0683 13.8044 22.5835 13.8044 24.2911C13.8044 26.1112 14.7404 27.713 16.1575 28.6404Z" fill="#F2F2F2"/>
<path d="M22.0999 20.1226C23.3717 21.0692 24.1952 22.5835 24.1952 24.2911C24.1952 26.1112 23.2601 27.712 21.843 28.6394C21.0262 29.1753 20.0488 29.486 18.9993 29.486C17.9507 29.486 16.9732 29.1753 16.1574 28.6404C14.7404 27.713 13.8043 26.1112 13.8043 24.2911C13.8043 22.5835 14.6288 21.0683 15.9006 20.1216C16.7654 19.4771 17.8381 19.0961 18.9993 19.0961C20.1604 19.0961 21.234 19.4781 22.0999 20.1226Z" fill="#F7B239"/>
<path d="M7.3251 5.98852C7.20965 5.70665 7.14616 5.39784 7.14616 5.0746C7.14616 3.74508 8.22363 2.66665 9.55411 2.66665C10.2208 2.66665 10.824 2.93794 11.2607 3.37566C11.6898 2.12695 12.8741 1.22842 14.269 1.22842C15.2147 1.22842 16.0641 1.64113 16.6462 2.29723C16.9858 1.37754 17.8699 0.721436 18.9069 0.721436C20.0036 0.721436 20.9281 1.45546 21.2196 2.45789C21.8017 1.7104 22.7098 1.22842 23.7305 1.22842C25.1255 1.22842 26.3107 2.12695 26.7397 3.37566C27.1755 2.93794 27.7787 2.66665 28.4464 2.66665C29.7759 2.66665 30.8543 3.74508 30.8543 5.0746C30.8543 5.39784 30.7899 5.70665 30.6744 5.98852C32.2993 6.1309 33.574 7.49409 33.574 9.15647C33.574 9.98382 33.2574 10.738 32.7389 11.3037H27.9653H22.3673H15.6331H10.0342H5.26059C4.74302 10.738 4.42651 9.98382 4.42651 9.15647C4.42651 7.49409 5.70024 6.1309 7.3251 5.98852Z" fill="#F7B239"/>
<path d="M14.2513 5.98852C14.1359 5.70665 14.0724 5.39784 14.0724 5.0746C14.0724 3.74508 15.1498 2.66665 16.4803 2.66665C17.147 2.66665 17.7502 2.93794 18.1869 3.37566C18.5405 2.34668 19.4075 1.55686 20.4819 1.31029C20.0597 0.944048 19.5097 0.721436 18.9069 0.721436C17.8699 0.721436 16.9858 1.37754 16.6462 2.29723C16.0641 1.64113 15.2147 1.22842 14.269 1.22842C12.8741 1.22842 11.6898 2.12695 11.2607 3.37566C10.824 2.93794 10.2208 2.66665 9.55411 2.66665C8.22363 2.66665 7.14616 3.74508 7.14616 5.0746C7.14616 5.39784 7.20965 5.70665 7.3251 5.98852C5.70024 6.1309 4.42651 7.49409 4.42651 9.15647C4.42651 9.98382 4.74302 10.738 5.26059 11.3037H10.0342H12.1868C11.6692 10.738 11.3527 9.98382 11.3527 9.15647C11.3527 7.49409 12.6264 6.1309 14.2513 5.98852Z" fill="#E09B2D"/>
<path d="M23.5724 2.2972C23.7201 1.89729 23.9709 1.5475 24.2922 1.27948C24.1097 1.24686 23.9224 1.22839 23.7304 1.22839C23.2796 1.22839 22.851 1.32267 22.4624 1.49208C22.8893 1.67785 23.2677 1.95376 23.5724 2.2972Z" fill="#E09B2D"/>
<path d="M10.0342 11.3037L12.1257 37.2784H8.44302L5.22986 11.3037H5.26064H10.0342Z" fill="#AD241B"/>
<path d="M21.843 28.6394L21.5814 37.2784H16.4182L16.1575 28.6404C16.9733 29.1753 17.9507 29.486 18.9993 29.486C20.0489 29.486 21.0263 29.1753 21.843 28.6394Z" fill="#AD241B"/>
<path d="M22.3674 11.3037L22.1009 20.1216L22.0999 20.1226C21.2341 19.478 20.1605 19.0961 18.9993 19.0961C17.8381 19.0961 16.7655 19.4771 15.9006 20.1216L15.8997 20.1207L15.6332 11.3037H22.3674Z" fill="#AD241B"/>
<path d="M32.7697 11.3037L29.5565 37.2784H25.8729L27.9653 11.3037H32.7389H32.7697Z" fill="#AD241B"/>
<path d="M28.1284 31.5294C28.0988 31.5294 28.069 31.5276 28.0389 31.5239C27.6435 31.4749 27.3625 31.1148 27.4114 30.7193L29.2132 16.1539C29.2622 15.7584 29.623 15.4775 30.0178 15.5264C30.4132 15.5754 30.6942 15.9355 30.6453 16.331L28.8435 30.8964C28.7984 31.2619 28.4874 31.5294 28.1284 31.5294Z" fill="white"/>
<path d="M30.2559 14.2157C30.6544 14.2157 30.9775 13.8927 30.9775 13.4942C30.9775 13.0957 30.6544 12.7727 30.2559 12.7727C29.8575 12.7727 29.5344 13.0957 29.5344 13.4942C29.5344 13.8927 29.8575 14.2157 30.2559 14.2157Z" fill="white"/>
<path d="M34.2952 9.15656C34.2952 7.40336 33.1633 5.92184 31.5555 5.4288C31.5688 5.31173 31.5755 5.19359 31.5755 5.07468C31.5755 3.3491 30.1716 1.94522 28.446 1.94522C27.9376 1.94522 27.4482 2.06537 27.0096 2.29241C26.3022 1.19714 25.0759 0.506987 23.7302 0.506987C22.8831 0.506987 22.0793 0.775681 21.4173 1.26506C20.8371 0.488997 19.9107 0 18.9066 0C17.9412 0 17.044 0.450324 16.4592 1.1805C15.8189 0.745858 15.0566 0.506987 14.2687 0.506987C12.9234 0.506987 11.6973 1.19734 10.99 2.2927C10.5512 2.06556 10.0617 1.94522 9.55383 1.94522C7.82824 1.94522 6.42436 3.3491 6.42436 5.07468C6.42436 5.19369 6.4309 5.31182 6.44408 5.42861C4.83663 5.92155 3.70471 7.40317 3.70471 9.15656C3.70471 10.0336 3.99803 10.8764 4.53475 11.5613L7.72646 37.3671C7.77119 37.7286 8.07827 38 8.44249 38H29.5566C29.9209 38 30.228 37.7285 30.2727 37.3671L33.4644 11.5612C34.0016 10.8766 34.2952 10.0339 34.2952 9.15656ZM6.94327 6.78728C7.32443 7.33256 8.00699 7.90717 9.01047 7.90717C9.11524 7.90717 9.22347 7.90092 9.33525 7.88774C9.71275 7.8431 10.0158 7.5292 10.0049 7.1492C9.99241 6.71369 9.60885 6.39583 9.18816 6.45182C8.37862 6.56005 8.05538 5.87086 7.99785 5.72838C7.99688 5.72597 7.99573 5.72376 7.99477 5.72136C7.9939 5.71934 7.99352 5.71712 7.99265 5.7151C7.93483 5.57407 7.89693 5.42678 7.87913 5.27536C7.76821 4.32882 8.48405 3.45723 9.43482 3.3922C9.92613 3.35862 10.3944 3.53381 10.7415 3.87706C10.8765 4.01059 11.0569 4.09448 11.2467 4.09727C11.5674 4.10198 11.8431 3.90044 11.9428 3.6101C12.2841 2.61709 13.2188 1.94993 14.2687 1.94993C14.9688 1.94993 15.6368 2.24941 16.1023 2.77188C16.2307 2.9159 16.412 3.00768 16.6047 3.01787C16.9293 3.035 17.215 2.83884 17.3228 2.54715C17.5665 1.88682 18.2031 1.44304 18.9066 1.44304C19.645 1.44304 20.3055 1.93367 20.5203 2.63893C20.583 2.84442 20.7199 3.02393 20.9153 3.11302C21.2298 3.25617 21.5866 3.16064 21.7886 2.90137C22.2594 2.29684 22.9672 1.95012 23.7303 1.95012C24.6595 1.95012 25.4976 2.4726 25.9151 3.28022C25.7822 3.491 25.6354 3.77605 25.5412 4.11776C25.2693 5.10499 25.5666 6.09578 26.3784 6.90763C26.5192 7.04857 26.7039 7.11899 26.8886 7.11899C27.07 7.11899 27.2514 7.05097 27.3914 6.91494C27.6815 6.63307 27.657 6.15225 27.3746 5.86268C26.9573 5.43487 26.8092 5.00224 26.922 4.54086C26.9343 4.49093 26.9489 4.44283 26.9652 4.39694C27.1032 4.00837 27.3992 3.68917 27.7776 3.52553C28.0392 3.4124 28.3297 3.36661 28.6276 3.39758C29.4765 3.4858 30.1337 4.22339 30.1325 5.0768C30.1322 5.29566 30.0903 5.50942 30.0076 5.71203C29.9429 5.87076 29.9345 6.05027 29.9883 6.21305C30.0809 6.49309 30.3283 6.68252 30.6112 6.70734C31.8679 6.81749 32.8523 7.89323 32.8523 9.15656C32.8523 9.6722 32.6899 10.1678 32.3937 10.5823H5.60577C5.30995 10.1675 5.14775 9.67191 5.14775 9.15656C5.14775 8.02618 5.8938 7.07541 6.94327 6.78728ZM18.9997 28.7648C16.5328 28.7648 14.526 26.758 14.526 24.2911C14.526 21.8243 16.5328 19.8174 18.9997 19.8174C21.4665 19.8174 23.4734 21.8243 23.4734 24.2911C23.4734 26.758 21.4665 28.7648 18.9997 28.7648ZM18.9997 18.3744C18.1394 18.3744 17.3222 18.5605 16.584 18.8921L16.3765 12.0253H21.6235L21.4159 18.8923C20.6774 18.5605 19.8601 18.3744 18.9997 18.3744ZM14.9328 12.0253L15.1674 19.7885C13.8932 20.8746 13.0829 22.4896 13.0829 24.2911C13.0829 26.2213 14.0122 27.9384 15.4467 29.0191L15.6742 36.557H12.7918L10.8163 12.0253H14.9328ZM16.9149 29.8275C17.5637 30.0726 18.266 30.2079 18.9997 30.2079C19.7335 30.2079 20.436 30.0726 21.085 29.8273L20.8811 36.557H17.1179L16.9149 29.8275ZM22.553 29.0187C23.9873 27.938 24.9164 26.2212 24.9164 24.2911C24.9164 22.4898 24.1063 20.8751 22.8325 19.789L23.067 12.0253H27.1829L25.2074 36.557H22.3247L22.553 29.0187ZM6.04619 12.0253H9.36854L11.3441 36.557H9.08032L6.04619 12.0253ZM28.9188 36.557H26.6551L28.6306 12.0253H31.953L28.9188 36.557Z" fill="#272728"/>
<path d="M16.0815 9.67066C16.48 9.67066 16.803 9.34761 16.803 8.94914C16.803 8.55067 16.48 8.22762 16.0815 8.22762C15.4184 8.22762 14.879 7.68821 14.879 7.02509C14.879 6.36196 15.4184 5.82255 16.0815 5.82255C16.51 5.82255 16.8969 6.04449 17.1165 6.41622C17.2309 6.61007 17.4294 6.73937 17.653 6.76582C17.8767 6.79237 18.0997 6.71281 18.2563 6.5511C18.5566 6.24075 18.9593 6.06989 19.3901 6.06989C20.2604 6.06989 20.9683 6.77785 20.9683 7.64819C20.9683 8.04666 21.2913 8.36971 21.6898 8.36971C22.0884 8.36971 22.4113 8.04666 22.4113 7.64819C22.4113 5.98225 21.056 4.62685 19.3901 4.62685C18.8346 4.62685 18.3037 4.77501 17.8408 5.05293C17.3619 4.62656 16.736 4.37952 16.0816 4.37952C14.6228 4.37952 13.436 5.56627 13.436 7.02509C13.436 8.4839 14.6227 9.67066 16.0815 9.67066Z" fill="#272728"/>
</g>
<defs>
<clipPath id="clip0_2191_4">
<rect width="38" height="38" fill="white"/>
</clipPath>
</defs>
</svg>
