<svg width="58" height="58" viewBox="0 0 58 58" fill="none" xmlns="http://www.w3.org/2000/svg">
<rect width="58" height="58" rx="10" fill="#272728"/>
<path d="M31.0125 19.0676C31.0125 19.4565 31.0125 20.7241 31.0125 22.5249H37.2042L36.5329 28.0444H31.0125C31.0125 36.5564 31.0125 47.9628 31.0125 47.9628H23.6852C23.6852 47.9628 23.6852 36.7073 23.6852 28.0444H19.8672V22.5249H23.6852C23.6852 20.3361 23.6852 18.7796 23.6852 18.3463C23.6852 16.2815 23.5297 15.3018 24.407 13.7018C25.2848 12.1019 27.7607 9.98708 32.0431 10.038C36.3265 10.0908 38.132 10.5028 38.132 10.5028L37.2042 16.3852C37.2042 16.3852 34.469 15.663 33.1264 15.9204C31.7857 16.1778 31.0125 17.0037 31.0125 19.0676Z" fill="#67686D"/>
</svg>
