<svg width="48" height="48" viewBox="0 0 48 48" fill="none" xmlns="http://www.w3.org/2000/svg">
<rect width="48" height="48" rx="10" fill="#272728"/>
<path d="M31.0769 35C30.8891 34.9962 30.7061 34.9397 30.5477 34.8366L24 30.1726L17.4523 34.8366C17.3077 34.9265 17.1416 34.9741 16.9723 34.9741C16.803 34.9741 16.6369 34.9265 16.4923 34.8366C16.3507 34.762 16.2307 34.6508 16.1443 34.514C16.0579 34.3772 16.0081 34.2197 16 34.0571V16.4571C16 15.5402 16.3566 14.6609 16.9913 14.0126C17.6261 13.3642 18.487 13 19.3846 13H28.6154C29.513 13 30.3739 13.3642 31.0086 14.0126C31.6434 14.6609 32 15.5402 32 16.4571V34.0571C32.0006 34.2284 31.9549 34.3963 31.8682 34.5428C31.7813 34.6891 31.6565 34.8082 31.5077 34.8869C31.3756 34.9609 31.2276 34.9998 31.0769 35ZM24 28.0857C24.1886 28.0837 24.3733 28.1408 24.5292 28.2491L30.1538 32.2469V16.4571C30.1538 16.0404 29.9917 15.6407 29.7033 15.346C29.4148 15.0513 29.0234 14.8857 28.6154 14.8857H19.3846C18.9766 14.8857 18.5853 15.0513 18.2968 15.346C18.0082 15.6407 17.8462 16.0404 17.8462 16.4571V32.2469L23.4708 28.2491C23.6267 28.1408 23.8114 28.0837 24 28.0857Z" fill="#FBFBFB"/>
</svg>
