<svg width="30" height="30" viewBox="0 0 30 30" fill="none" xmlns="http://www.w3.org/2000/svg">
<path d="M22.1875 25.9375C21.9967 25.9338 21.8109 25.8775 21.65 25.775L15 21.1375L8.35 25.775C8.20311 25.8644 8.03446 25.9118 7.8625 25.9118C7.69054 25.9118 7.52189 25.8644 7.375 25.775C7.23114 25.7009 7.10926 25.5903 7.02152 25.4543C6.93379 25.3183 6.88326 25.1616 6.875 25V7.5C6.875 6.58831 7.23716 5.71397 7.88182 5.06932C8.52647 4.42466 9.40081 4.0625 10.3125 4.0625H19.6875C20.5991 4.0625 21.4735 4.42466 22.1181 5.06932C22.7629 5.71397 23.125 6.58831 23.125 7.5V25C23.1256 25.1702 23.0793 25.3372 22.9911 25.4829C22.9029 25.6284 22.7761 25.7467 22.625 25.825C22.4909 25.8986 22.3405 25.9373 22.1875 25.9375Z" fill="#AD241B"/>
</svg>
