<svg width="24" height="24" viewBox="0 0 24 24" fill="none" xmlns="http://www.w3.org/2000/svg">
<path d="M12.0001 22.069C17.5611 22.069 22.0691 17.561 22.0691 12.0001C22.0691 6.43912 17.5611 1.93109 12.0001 1.93109C6.43918 1.93109 1.93115 6.43912 1.93115 12.0001C1.93115 17.561 6.43918 22.069 12.0001 22.069Z" stroke="#67686D" stroke-width="1.5" stroke-linejoin="round"/>
<path d="M7.44824 16.5518L9.7241 9.72423L16.5517 7.44836L14.2758 14.276L7.44824 16.5518Z" stroke="#67686D" stroke-width="1.5" stroke-linejoin="round"/>
<path fill-rule="evenodd" clip-rule="evenodd" d="M11.9999 12.9656C12.5332 12.9656 12.9655 12.5334 12.9655 12.0001C12.9655 11.4669 12.5332 11.0346 11.9999 11.0346C11.4667 11.0346 11.0344 11.4669 11.0344 12.0001C11.0344 12.5334 11.4667 12.9656 11.9999 12.9656Z" fill="#67686D"/>
</svg>
