<svg width="20" height="20" viewBox="0 0 20 20" fill="none" xmlns="http://www.w3.org/2000/svg">
<path d="M6.03341 1.66669H4.45008C2.62508 1.66669 1.66675 2.62502 1.66675 4.44169V6.02502C1.66675 7.84169 2.62508 8.80002 4.44175 8.80002H6.02508C7.84175 8.80002 8.80008 7.84169 8.80008 6.02502V4.44169C8.80841 2.62502 7.85008 1.66669 6.03341 1.66669Z" fill="#67686D"/>
<path d="M15.5578 1.66669H13.9745C12.1578 1.66669 11.1995 2.62502 11.1995 4.44169V6.02502C11.1995 7.84169 12.1578 8.80002 13.9745 8.80002H15.5578C17.3745 8.80002 18.3328 7.84169 18.3328 6.02502V4.44169C18.3328 2.62502 17.3745 1.66669 15.5578 1.66669Z" fill="#67686D"/>
<path d="M15.5578 11.1918H13.9745C12.1578 11.1918 11.1995 12.1502 11.1995 13.9668V15.5502C11.1995 17.3668 12.1578 18.3252 13.9745 18.3252H15.5578C17.3745 18.3252 18.3328 17.3668 18.3328 15.5502V13.9668C18.3328 12.1502 17.3745 11.1918 15.5578 11.1918Z" fill="#67686D"/>
<path d="M6.03341 11.1918H4.45008C2.62508 11.1918 1.66675 12.1502 1.66675 13.9668V15.5502C1.66675 17.3752 2.62508 18.3335 4.44175 18.3335H6.02508C7.84175 18.3335 8.80008 17.3752 8.80008 15.5585V13.9752C8.80841 12.1502 7.85008 11.1918 6.03341 11.1918Z" fill="#67686D"/>
</svg>
