<svg width="58" height="58" viewBox="0 0 58 58" fill="none" xmlns="http://www.w3.org/2000/svg">
<rect width="58" height="58" rx="10" fill="#272728"/>
<path fill-rule="evenodd" clip-rule="evenodd" d="M34.8343 16.0665C36.2195 14.461 37.1533 12.2249 36.8977 10C34.9015 10.076 32.4865 11.2752 31.0552 12.8788C29.7698 14.3018 28.6478 16.5757 28.9494 18.7569C31.1762 18.9222 33.4491 17.6738 34.8343 16.0665ZM39.8277 30.1875C39.8834 35.9387 45.092 37.8519 45.1496 37.8766C45.1073 38.0115 44.3177 40.6026 42.406 43.2815C40.7518 45.5957 39.0361 47.9005 36.3329 47.9499C33.6777 47.9974 32.8227 46.4414 29.7852 46.4414C26.7496 46.4414 25.8005 47.9003 23.2874 47.9972C20.6784 48.0903 18.6898 45.4935 17.0241 43.1869C13.6158 38.4693 11.0124 29.8552 14.5092 24.0413C16.246 21.1552 19.3488 19.3248 22.7187 19.2792C25.2798 19.2317 27.6987 20.9306 29.2645 20.9306C30.8304 20.9306 33.7699 18.8881 36.8593 19.1883C38.1523 19.2396 41.7835 19.6878 44.114 22.9577C43.9258 23.0698 39.7816 25.3806 39.8277 30.1875Z" fill="#67686D"/>
</svg>
