<svg width="22" height="20" viewBox="0 0 22 20" fill="none" xmlns="http://www.w3.org/2000/svg">
<path d="M19.3846 2.84083C18.3373 1.79355 16.9508 1.22116 15.4711 1.22116C13.9913 1.22116 12.6006 1.79779 11.5533 2.84506L11.0064 3.39202L10.4509 2.83659C9.40365 1.78931 8.0087 1.20844 6.52895 1.20844C5.05344 1.20844 3.66273 1.78507 2.61969 2.82811C1.57242 3.87538 0.995783 5.26609 1.00002 6.74584C1.00002 8.22559 1.5809 9.61206 2.62817 10.6593L10.5908 18.622C10.7011 18.7322 10.8495 18.7916 10.9936 18.7916C11.1378 18.7916 11.2862 18.7365 11.3964 18.6262L19.3761 10.6763C20.4233 9.62902 21 8.23831 21 6.75856C21.0042 5.27881 20.4318 3.8881 19.3846 2.84083ZM18.5705 9.86646L10.9936 17.4136L3.43377 9.85374C2.60273 9.02271 2.14482 7.92031 2.14482 6.74584C2.14482 5.57137 2.59849 4.46898 3.42953 3.64218C4.25632 2.81539 5.35872 2.35747 6.52895 2.35747C7.70342 2.35747 8.81005 2.81539 9.64109 3.64642L10.5993 4.60465C10.824 4.82937 11.1844 4.82937 11.4092 4.60465L12.3589 3.6549C13.1899 2.82387 14.2966 2.36595 15.4668 2.36595C16.637 2.36595 17.7394 2.82387 18.5705 3.65066C19.4015 4.48169 19.8552 5.58409 19.8552 6.75856C19.8594 7.93303 19.4015 9.03543 18.5705 9.86646Z" fill="#67686D" stroke="#67686D" stroke-width="0.5"/>
</svg>
