<svg width="22" height="20" viewBox="0 0 22 20" fill="none" xmlns="http://www.w3.org/2000/svg">
<path d="M19.3846 2.84083C18.3373 1.79355 16.9508 1.22116 15.4711 1.22116C13.9913 1.22116 12.6006 1.79779 11.5533 2.84506L11.0064 3.39202L10.4509 2.83659C9.40365 1.78931 8.0087 1.20844 6.52895 1.20844C5.05344 1.20844 3.66273 1.78507 2.61969 2.82811C1.57242 3.87538 0.995783 5.26609 1.00002 6.74584C1.00002 8.22559 1.5809 9.61206 2.62817 10.6593L10.5908 18.622C10.7011 18.7322 10.8495 18.7916 10.9936 18.7916C11.1378 18.7916 11.2862 18.7365 11.3964 18.6262L19.3761 10.6763C20.4233 9.62902 21 8.23831 21 6.75856C21.0042 5.27881 20.4318 3.8881 19.3846 2.84083Z" stroke="#67686D" stroke-width="1.5"/>
</svg>
