<svg width="58" height="58" viewBox="0 0 58 58" fill="none" xmlns="http://www.w3.org/2000/svg">
<rect width="58" height="58" rx="10" fill="#272728"/>
<g clip-path="url(#clip0_2106_2238)">
<path d="M43.824 33.3662C43.824 33.3662 46.8963 36.4005 47.6563 37.8046C47.6711 37.8248 47.6826 37.8473 47.6905 37.8711C48.0002 38.3898 48.0762 38.7964 47.9242 39.0966C47.6677 39.5925 46.7994 39.8414 46.5049 39.8623H41.0747C40.6966 39.8623 39.91 39.7635 38.9524 39.1023C38.2209 38.5912 37.4932 37.7495 36.7883 36.9268C35.7357 35.7051 34.8256 34.6449 33.9041 34.6449C33.7877 34.6446 33.6721 34.6639 33.5621 34.7019C32.8648 34.9223 31.9794 35.916 31.9794 38.5627C31.9794 39.3911 31.3258 39.8623 30.8679 39.8623H28.3808C27.5334 39.8623 23.1216 39.5659 19.2095 35.441C14.4158 30.3908 10.1104 20.26 10.0686 20.1707C9.80067 19.5152 10.3631 19.158 10.9711 19.158H16.4545C17.1898 19.158 17.4292 19.6026 17.5964 20.0016C17.7902 20.4595 18.5084 22.2911 19.6864 24.3488C21.594 27.6966 22.7663 29.0589 23.703 29.0589C23.879 29.0594 24.052 29.0135 24.2046 28.9259C25.4282 28.2533 25.2002 23.8833 25.1432 22.9827C25.1432 22.8079 25.1413 21.0314 24.5143 20.1726C24.0659 19.557 23.3021 19.3176 22.8404 19.2302C22.9639 19.0516 23.2261 18.778 23.5624 18.6165C24.4003 18.1985 25.9146 18.1377 27.4175 18.1377H28.2516C29.8818 18.1605 30.3036 18.265 30.8964 18.4151C32.0896 18.7001 32.1124 19.4734 32.0079 22.1068C31.9775 22.8592 31.9452 23.7066 31.9452 24.7041C31.9452 24.9169 31.9357 25.1544 31.9357 25.3957C31.8996 26.7466 31.8521 28.2685 32.8059 28.8936C32.9296 28.9707 33.0724 29.0115 33.2182 29.0114C33.5488 29.0114 34.5387 29.0114 37.2234 24.4039C38.4014 22.369 39.3134 19.9693 39.3761 19.7888C39.4293 19.6881 39.5889 19.405 39.7827 19.291C39.9205 19.2176 40.075 19.181 40.2311 19.1846H46.6816C47.3846 19.1846 47.8615 19.291 47.9546 19.557C48.1104 19.9883 47.9242 21.305 44.9792 25.2874C44.4833 25.9505 44.0482 26.5243 43.6663 27.0259C40.9968 30.5295 40.9968 30.7062 43.824 33.3662Z" fill="#67686D"/>
</g>
<defs>
<clipPath id="clip0_2106_2238">
<rect width="38" height="38" fill="white" transform="translate(10 10)"/>
</clipPath>
</defs>
</svg>
