<svg width="41" height="20" viewBox="0 0 41 20" fill="none" xmlns="http://www.w3.org/2000/svg">
<g clip-path="url(#clip0_2261_2555)">
<path d="M38 0H3C1.61929 0 0.5 1.11929 0.5 2.5V17.5C0.5 18.8807 1.61929 20 3 20H38C39.3807 20 40.5 18.8807 40.5 17.5V2.5C40.5 1.11929 39.3807 0 38 0Z" fill="#F5C518"/>
<path d="M5.5 15.625H8.625V4.375H5.5V15.625Z" fill="black"/>
<path d="M15.2953 4.375L14.5959 9.63029L14.1614 6.77189C14.0354 5.85631 13.9145 5.05734 13.7988 4.375H9.875V15.625H12.526L12.5363 8.19613L13.6523 15.625H15.5396L16.599 8.03237L16.6067 15.625H19.25V4.375H15.2953Z" fill="black"/>
<path d="M20.5 15.625V4.375H25.3778C26.4808 4.375 27.375 5.26247 27.375 6.36038V13.6396C27.375 14.7361 26.4823 15.625 25.3778 15.625H20.5ZM24.1452 6.3997C24.0212 6.33271 23.7841 6.30045 23.4392 6.30045V13.6822C23.8946 13.6822 24.1748 13.6003 24.2799 13.4291C24.385 13.2604 24.4389 12.8038 24.4389 12.0545V7.69244C24.4389 7.18378 24.42 6.85873 24.385 6.71482C24.3499 6.57091 24.2718 6.4667 24.1452 6.3997Z" fill="black"/>
<path d="M33.2687 7.19179H33.4684C34.5904 7.19179 35.5 8.07042 35.5 9.15304V13.6637C35.5 14.7469 34.5907 15.625 33.4684 15.625H33.2687C32.5822 15.625 31.9752 15.296 31.6074 14.7927L31.4274 15.4805H28.625V4.375H31.6152V7.98783C32.0016 7.50635 32.597 7.19179 33.2687 7.19179ZM32.6285 12.6776V10.0119C32.6285 9.57146 32.6002 9.28241 32.5413 9.14935C32.4824 9.0163 32.2472 8.93087 32.0823 8.93087C31.9174 8.93087 31.663 9.0003 31.6135 9.11729V10.0119V12.763V13.6297C31.6701 13.7581 31.9126 13.8296 32.0823 13.8296C32.252 13.8296 32.4989 13.7604 32.5507 13.6297C32.6026 13.4989 32.6285 13.18 32.6285 12.6776Z" fill="black"/>
</g>
<defs>
<clipPath id="clip0_2261_2555">
<rect width="40" height="20" fill="white" transform="translate(0.5)"/>
</clipPath>
</defs>
</svg>
