<svg width="35" height="36" viewBox="0 0 35 36" fill="none" xmlns="http://www.w3.org/2000/svg">
<g clip-path="url(#clip0_58_3709)">
<rect x="14.7778" y="22.2778" width="8.55556" height="8.55556" fill="#FBFBFB"/>
<path d="M7.43916 15.2974C7.37558 14.7629 7.18597 14.2666 6.90012 13.8396L32.5077 5.28963L31.1636 1.2634C30.9682 0.678317 30.3353 0.362562 29.7505 0.557717L1.89509 9.85818C1.31038 10.0533 0.993993 10.6861 1.1894 11.2712L1.84854 13.2451C1.19054 13.856 0.777771 14.7276 0.777771 15.6943C0.777771 16.9462 1.46983 18.0389 2.49115 18.6118V34.3831C2.49115 35.0001 2.99159 35.4999 3.60809 35.4999H32.9751C33.5913 35.4999 34.0918 35 34.0918 34.3831V15.2974H7.43916ZM23.7607 3.87132L27.151 2.73937L26.3351 6.03694L22.9448 7.16889L23.7607 3.87132ZM15.3844 6.66795L18.7749 5.536L17.9591 8.83345L14.5688 9.96553L15.3844 6.66795ZM4.12051 17.3974C3.1817 17.3974 2.41773 16.6335 2.41773 15.6944C2.41773 14.7553 3.1817 13.9914 4.12051 13.9914C5.05958 13.9914 5.82355 14.7553 5.82355 15.6944C5.82355 16.6335 5.05958 17.3974 4.12051 17.3974ZM7.00848 9.46459L10.399 8.33264L9.58321 11.6302L6.19266 12.7623L7.00848 9.46459ZM10.3391 19.0684H6.76476L8.58284 16.199H12.1572L10.3391 19.0684ZM17.4134 16.199H20.9877L19.1697 19.0684H15.5953L17.4134 16.199ZM16.536 30.0662V22.4972L22.5639 26.2817L16.536 30.0662ZM28.0002 19.0684H24.4258L26.2439 16.199H29.8183L28.0002 19.0684Z" fill="#AD241B"/>
</g>
<defs>
<clipPath id="clip0_58_3709">
<rect width="35" height="35" fill="white" transform="translate(0 0.5)"/>
</clipPath>
</defs>
</svg>
