<svg width="48" height="48" viewBox="0 0 48 48" fill="none" xmlns="http://www.w3.org/2000/svg">
<rect width="48" height="48" rx="10" fill="#272728"/>
<path d="M23.245 16.174C23.4765 15.5081 23.5922 15.1751 23.7634 15.0829C23.9115 15.003 24.0898 15.003 24.238 15.0829C24.4091 15.1751 24.5248 15.5081 24.7563 16.174L26.2866 20.5764C26.3525 20.7659 26.3854 20.8607 26.4448 20.9313C26.4972 20.9936 26.5641 21.0422 26.6396 21.0728C26.725 21.1074 26.8253 21.1095 27.0259 21.1136L31.6857 21.2085C32.3906 21.2229 32.743 21.2301 32.8837 21.3643C33.0054 21.4805 33.0605 21.6501 33.0303 21.8157C32.9955 22.007 32.7146 22.2199 32.1528 22.6459L28.4387 25.4616C28.2788 25.5829 28.1989 25.6435 28.1501 25.7217C28.107 25.7909 28.0815 25.8695 28.0757 25.9507C28.0692 26.0427 28.0982 26.1387 28.1563 26.3308L29.506 30.7919C29.7101 31.4667 29.8122 31.8041 29.728 31.9793C29.6551 32.131 29.5108 32.2358 29.344 32.2583C29.1513 32.2842 28.862 32.0829 28.2833 31.6802L24.4576 29.0181C24.2929 28.9035 24.2106 28.8462 24.1211 28.8239C24.042 28.8043 23.9593 28.8043 23.8803 28.8239C23.7908 28.8462 23.7084 28.9035 23.5437 29.0181L19.7181 31.6802C19.1394 32.0829 18.85 32.2842 18.6573 32.2583C18.4906 32.2358 18.3463 32.131 18.2734 31.9793C18.1892 31.8041 18.2912 31.4667 18.4954 30.7919L19.845 26.3308C19.9031 26.1387 19.9322 26.0427 19.9256 25.9507C19.9199 25.8695 19.8943 25.7909 19.8512 25.7217C19.8025 25.6435 19.7225 25.5829 19.5626 25.4616L15.8486 22.6459C15.2868 22.2199 15.0059 22.007 14.971 21.8157C14.9408 21.6501 14.9959 21.4805 15.1177 21.3643C15.2583 21.2301 15.6107 21.2229 16.3156 21.2085L20.9754 21.1136C21.176 21.1095 21.2763 21.1074 21.3618 21.0728C21.4373 21.0422 21.5041 20.9936 21.5566 20.9313C21.6159 20.8607 21.6489 20.7659 21.7148 20.5764L23.245 16.174Z" stroke="#FBFBFB" stroke-width="1.5" stroke-linecap="round" stroke-linejoin="round"/>
</svg>
