<svg width="30" height="30" viewBox="0 0 30 30" fill="none" xmlns="http://www.w3.org/2000/svg">
<path d="M13.75 6.75C13.75 6.28587 13.9344 5.84075 14.2626 5.51256C14.5908 5.18437 15.0359 5 15.5 5H23.25C23.7141 5 24.1592 5.18437 24.4874 5.51256C24.8156 5.84075 25 6.28587 25 6.75V23.25C25 23.7141 24.8156 24.1592 24.4874 24.4874C24.1592 24.8156 23.7141 25 23.25 25H15.5C15.0359 25 14.5908 24.8156 14.2626 24.4874C13.9344 24.1592 13.75 23.7141 13.75 23.25V20C13.75 19.6685 13.6183 19.3505 13.3839 19.1161C13.1495 18.8817 12.8315 18.75 12.5 18.75C12.1685 18.75 11.8505 18.8817 11.6161 19.1161C11.3817 19.3505 11.25 19.6685 11.25 20V23.25C11.25 24.3772 11.6978 25.4582 12.4948 26.2552C13.2918 27.0522 14.3728 27.5 15.5 27.5H23.25C24.3772 27.5 25.4582 27.0522 26.2552 26.2552C27.0522 25.4582 27.5 24.3772 27.5 23.25V6.75C27.5 5.62283 27.0522 4.54183 26.2552 3.7448C25.4582 2.94777 24.3772 2.5 23.25 2.5H15.5C14.9419 2.5 14.3892 2.60993 13.8736 2.82351C13.358 3.03709 12.8894 3.35015 12.4948 3.7448C12.1001 4.13945 11.7871 4.60796 11.5735 5.1236C11.3599 5.63923 11.25 6.19188 11.25 6.75V10C11.25 10.3315 11.3817 10.6495 11.6161 10.8839C11.8505 11.1183 12.1685 11.25 12.5 11.25C12.8315 11.25 13.1495 11.1183 13.3839 10.8839C13.6183 10.6495 13.75 10.3315 13.75 10V6.75Z" fill="#67686D"/>
<path d="M16.6162 10.3663C16.8507 10.1319 17.1685 10.0003 17.5 10.0003C17.8315 10.0003 18.1493 10.1319 18.3837 10.3663L22.1337 14.1163C22.3681 14.3507 22.4997 14.6685 22.4997 15C22.4997 15.3315 22.3681 15.6493 22.1337 15.8837L18.3837 19.6337C18.148 19.8614 17.8322 19.9874 17.5045 19.9846C17.1768 19.9817 16.8632 19.8503 16.6315 19.6185C16.3997 19.3868 16.2683 19.0732 16.2654 18.7455C16.2626 18.4178 16.3886 18.102 16.6162 17.8662L18.2325 16.25H3.75C3.41848 16.25 3.10054 16.1183 2.86612 15.8839C2.6317 15.6495 2.5 15.3315 2.5 15C2.5 14.6685 2.6317 14.3505 2.86612 14.1161C3.10054 13.8817 3.41848 13.75 3.75 13.75H18.2325L16.6162 12.1337C16.3819 11.8993 16.2503 11.5815 16.2503 11.25C16.2503 10.9185 16.3819 10.6007 16.6162 10.3663Z" fill="#67686D"/>
</svg>
