<svg width="58" height="58" viewBox="0 0 58 58" fill="none" xmlns="http://www.w3.org/2000/svg">
<rect width="58" height="58" rx="10" fill="#272728"/>
<path fill-rule="evenodd" clip-rule="evenodd" d="M18.1762 29C18.1762 27.7933 18.3766 26.6364 18.7344 25.5513L12.4732 20.77C11.2529 23.2476 10.5654 26.0394 10.5654 29C10.5654 31.9581 11.2521 34.7481 12.4707 37.224L18.7284 32.4335C18.3741 31.3535 18.1762 30.2008 18.1762 29Z" fill="#67686D"/>
<path fill-rule="evenodd" clip-rule="evenodd" d="M29.17 18.0222C31.7915 18.0222 34.1593 18.9511 36.0197 20.4711L41.4319 15.0667C38.1339 12.1955 33.9056 10.4222 29.17 10.4222C21.818 10.4222 15.4993 14.6267 12.4736 20.77L18.7348 25.5513C20.1774 21.172 24.2898 18.0222 29.17 18.0222Z" fill="#67686D"/>
<path fill-rule="evenodd" clip-rule="evenodd" d="M29.17 39.9778C24.2898 39.9778 20.1774 36.828 18.7348 32.4487L12.4736 37.2291C15.4993 43.3733 21.818 47.5778 29.17 47.5778C33.7078 47.5778 38.04 45.9666 41.2915 42.9477L35.3483 38.3531C33.6714 39.4095 31.5598 39.9778 29.17 39.9778Z" fill="#67686D"/>
<path fill-rule="evenodd" clip-rule="evenodd" d="M46.9284 29C46.9284 27.9022 46.7593 26.72 46.5056 25.6222H29.1699V32.8H39.1485C38.6496 35.2472 37.2915 37.1286 35.3482 38.3531L41.2914 42.9477C44.7069 39.7776 46.9284 35.0555 46.9284 29Z" fill="#67686D"/>
</svg>
